<?xml version="1.0" encoding="utf-8"?> 

<svg version="1.1" xmlns="http://www.w3.org/2000/svg" xmlns:xlink="http://www.w3.org/1999/xlink" x="0px" y="0px" viewBox="0 0 256 256" enable-background="new 0 0 256 256" xml:space="preserve">
<metadata> Svg Vector Icons : http://www.onlinewebfonts.com/icon </metadata>
<g><g><path fill="#000000" d="M200.5,171.3c0-2.8-1.1-5.3-2.9-7.1c-0.5-0.5-1.1-1-1.8-1.4l-28.2-22c-1.8-1.8-4.3-2.9-7.1-2.9c-2.3,0-4.3,0.8-6,2l-7.9,7.9l0,0c-1.2,1.4-3,2.2-5,2.2c-2.3,0-4.2-1.1-5.4-2.8c0,0-0.1,0.1-0.1,0.2c-10.9-7.9-20.5-17.4-28.4-28.3c0.1,0,0.1-0.1,0.2-0.2c-1.7-1.2-2.9-3.2-2.9-5.5c0-2,0.9-3.9,2.4-5.1l0,0l7.8-7.8c1.3-1.7,2-3.7,2-6c0-2.8-1.1-5.2-2.9-7.1L92.4,59.3c-0.4-0.6-0.8-1.3-1.4-1.8c-1.8-1.8-4.3-2.9-7.1-2.9c-13.3,0-30,15.7-30,35c0,5.3,1.2,10.4,3.4,14.9l-0.1,0.1c20.1,39.9,53.4,73.3,93.3,93.3l0.1-0.1c4.6,2.1,9.6,3.4,14.9,3.4C184.9,201.3,200.6,184.6,200.5,171.3C200.6,171.3,200.6,171.3,200.5,171.3L200.5,171.3L200.5,171.3z"/><path fill="#000000" d="M128,10C62.8,10,10,62.8,10,128c0,65.2,52.8,118,118,118c65.2,0,118-52.8,118-118C246,62.8,193.2,10,128,10z M128,237.1c-60.2,0-109.1-48.8-109.1-109.1C18.9,67.8,67.8,19,128,19c60.2,0,109.1,48.8,109.1,109.1C237.1,188.2,188.2,237.1,128,237.1z"/></g></g>
</svg>